<svg xmlns="http://www.w3.org/2000/svg" style="overflow:visible" viewBox="128 128 256 256" data-svgdocument="" id="_eg90l3bab_1" class="fl-svgdocument">
    <path id="_eg90l3bab_209" transform="matrix(1.4435393810272217, 0, 0, 1.4435393810272217, 189.95411682128906, 152.92025756835938)" fill="#7dccab" data-type="circle" data-cx="50" data-cy="50" data-r="50" d="M50 50m-50 0a50 50 0 1 0 100 0a50 50 0 1 0 -100 0"></path>
    <path id="_eg90l3bab_128" d="M8 4 C5.789 4 4 2.211 4 0 C4 2.211 2.211 4 0 4 C2.211 4 4 5.789 4 8 C4 5.789 5.789 4 8 4 L8 4 Z" transform="matrix(2.79671573638916, 0, 0, 2.79671573638916, 180.48866271972656, 143.34962463378906)" stroke="#1e252a" stroke-width="2" stroke-linecap="round" fill="#ffffff" stroke-linejoin="round"></path>
    <path id="_eg90l3bab_129" d="M28.1744 44 L50.0004 44" transform="matrix(2.79671573638916, 0, 0, 2.79671573638916, 180.48866271972656, 143.34962463378906)" stroke="#1e252a" stroke-width="2" stroke-linecap="round" fill="#1e252a"></path>
    <path id="_eg90l3bab_130" d="M8 44 L21.943 44" stroke="#1e252a" stroke-width="2" transform="matrix(2.79671573638916, 0, 0, 2.79671573638916, 180.48866271972656, 143.34962463378906)" stroke-linecap="round" fill="#1e252a"></path>
    <path id="_eg90l3bab_131" d="M7.7371 32 L4.0001 32" stroke="#1e252a" stroke-width="2" transform="matrix(2.79671573638916, 0, 0, 2.79671573638916, 180.48866271972656, 143.34962463378906)" stroke-linecap="round" fill="#1e252a"></path>
    <path id="_eg90l3bab_132" d="M34 32 L15 32" stroke="#1e252a" stroke-width="2" stroke-linecap="round" transform="matrix(2.79671573638916, 0, 0, 2.79671573638916, 180.48866271972656, 143.34962463378906)" fill="#1e252a"></path>
    <path id="_eg90l3bab_133" d="M42 38 L21 38" stroke="#1e252a" stroke-width="2" stroke-linecap="round" transform="matrix(2.79671573638916, 0, 0, 2.79671573638916, 180.48866271972656, 143.34962463378906)" fill="#1e252a"></path>
    <path id="_eg90l3bab_134" d="M30 49 L13 49" stroke="#1e252a" stroke-width="2" stroke-linecap="round" transform="matrix(2.79671573638916, 0, 0, 2.79671573638916, 180.48866271972656, 143.34962463378906)" fill="#1e252a"></path>
    <path id="_eg90l3bab_135" d="M33 26 L23 26" stroke="#1e252a" stroke-width="2" stroke-linecap="round" transform="matrix(2.79671573638916, 0, 0, 2.79671573638916, 180.48866271972656, 143.34962463378906)" fill="#1e252a"></path>
    <path id="_eg90l3bab_136" d="M14 26 L4 26" stroke="#1e252a" stroke-width="2" stroke-linecap="round" transform="matrix(2.79671573638916, 0, 0, 2.79671573638916, 180.48866271972656, 143.34962463378906)" fill="#1e252a"></path>
    <path id="_eg90l3bab_137" d="M32 15 L22 15" stroke="#1e252a" stroke-width="2" stroke-linecap="round" transform="matrix(2.79671573638916, 0, 0, 2.79671573638916, 180.48866271972656, 143.34962463378906)" fill="#1e252a"></path>
    <path id="_eg90l3bab_138" d="M54 32 L42 32" stroke="#1e252a" stroke-width="2" stroke-linecap="round" transform="matrix(2.79671573638916, 0, 0, 2.79671573638916, 180.48866271972656, 143.34962463378906)" fill="#1e252a"></path>
    <path id="_eg90l3bab_139" d="M25.6229 9 L12.9999 9" stroke="#1e252a" stroke-width="2" stroke-linecap="round" transform="matrix(2.79671573638916, 0, 0, 2.79671573638916, 180.48866271972656, 143.34962463378906)" fill="#1e252a"></path>
    <path id="_eg90l3bab_140" d="M38 9 L32 9" stroke="#1e252a" stroke-width="2" stroke-linecap="round" transform="matrix(2.79671573638916, 0, 0, 2.79671573638916, 180.48866271972656, 143.34962463378906)" fill="#1e252a"></path>
    <path id="_eg90l3bab_141" d="M30.2629 21 L52.9999 21" stroke="#1e252a" stroke-width="2" stroke-linecap="round" transform="matrix(2.79671573638916, 0, 0, 2.79671573638916, 180.48866271972656, 143.34962463378906)" fill="#1e252a"></path>
    <path id="_eg90l3bab_142" d="M5 21 L23.661 21" transform="matrix(2.79671573638916, 0, 0, 2.79671573638916, 180.48866271972656, 143.34962463378906)" fill="#1e252a" stroke="#1e252a" stroke-width="2" stroke-linecap="round"></path>
    <path id="_eg90l3bab_152" d="M40 68.5c-15.7 0-28.5-12.8-28.5-28.5S24.3 11.5 40 11.5S68.5 24.3 68.5 40S55.7 68.5 40 68.5z M40 13.5   c-14.6 0-26.5 11.9-26.5 26.5S25.4 66.5 40 66.5S66.5 54.6 66.5 40S54.6 13.5 40 13.5z" transform="matrix(2.630389928817749, 0, 0, 2.630389928817749, 155.87588500976562, 119.88162231445312)" fill="#1e252a"></path>
    <path id="_eg90l3bab_123" d="M53 52 C53 52.552 52.552 53 52 53 C51.448 53 51 52.552 51 52 C51 51.448 51.448 51 52 51 C52.552 51 53 51.448 53 52" transform="matrix(2.79671573638916, 0, 0, 2.79671573638916, 180.48866271972656, 143.34962463378906)" stroke="none" fill="#1e252a" stroke-width="1"></path>
    <path id="_eg90l3bab_124" d="M57 9 C57 9.552 56.552 10 56 10 C55.448 10 55 9.552 55 9 C55 8.448 55.448 8 56 8 C56.552 8 57 8.448 57 9" stroke="none" transform="matrix(2.79671573638916, 0, 0, 2.79671573638916, 180.48866271972656, 143.34962463378906)" fill="#1e252a" stroke-width="1"></path>
    <path id="_eg90l3bab_125" d="M7 56 C7 56.552 6.552 57 6 57 C5.448 57 5 56.552 5 56 C5 55.448 5.448 55 6 55 C6.552 55 7 55.448 7 56" stroke="none" transform="matrix(2.79671573638916, 0, 0, 2.79671573638916, 180.48866271972656, 143.34962463378906)" fill="#1e252a" stroke-width="1"></path>
    <path id="_eg90l3bab_126" d="M50 8 C50 11.314 47.314 14 44 14 C40.686 14 38 11.314 38 8 C38 4.686 40.686 2 44 2 C47.314 2 50 4.686 50 8 L50 8 Z" transform="matrix(2.79671573638916, 0, 0, 2.79671573638916, 180.48866271972656, 143.34962463378906)" stroke="#1e252a" stroke-width="2" fill="#ffffff"></path>
    <path id="_eg90l3bab_127" d="M43 53 C43 55.209 41.209 57 39 57 C36.791 57 35 55.209 35 53 C35 50.791 36.791 49 39 49 C41.209 49 43 50.791 43 53 L43 53 Z" stroke="#1e252a" stroke-width="2" transform="matrix(2.79671573638916, 0, 0, 2.79671573638916, 180.48866271972656, 143.34962463378906)" fill="#ffffff"></path>

  </svg>
